G04 EAGLE Gerber RS-274X export*
G75*
%MOMM*%
%FSLAX34Y34*%
%LPD*%
%INSolder Mask top*%
%IPPOS*%
%AMOC8*
5,1,8,0,0,1.08239X$1,22.5*%
G01*
%ADD10C,0.000000*%
%ADD11C,3.200000*%
%ADD12R,1.500000X1.500000*%
%ADD13C,1.500000*%
%ADD14R,1.600000X1.600000*%
%ADD15P,1.731824X8X112.500000*%
%ADD16C,1.650000*%
%ADD17C,3.750000*%
%ADD18R,1.100000X1.000000*%
%ADD19R,1.080000X1.050000*%
%ADD20R,1.200000X1.200000*%
%ADD21C,1.200000*%
%ADD22R,1.040000X0.810000*%
%ADD23P,1.623585X8X202.500000*%
%ADD24R,1.400000X2.050000*%
%ADD25C,1.371600*%
%ADD26R,1.050000X1.080000*%
%ADD27P,1.623585X8X292.500000*%
%ADD28P,1.649562X8X22.500000*%
%ADD29C,1.524000*%
%ADD30P,1.623585X8X22.500000*%
%ADD31P,1.623585X8X112.500000*%
%ADD32R,2.050000X1.400000*%
%ADD33R,1.000000X1.100000*%
%ADD34R,1.475000X0.300000*%
%ADD35R,1.219200X2.235200*%
%ADD36R,3.600000X2.200000*%


D10*
X30000Y0D02*
X970000Y0D01*
X1000000Y30000D02*
X1000000Y970000D01*
X970000Y1000000D02*
X30000Y1000000D01*
X0Y970000D02*
X0Y30000D01*
X9Y29275D01*
X35Y28551D01*
X79Y27827D01*
X140Y27105D01*
X219Y26384D01*
X315Y25665D01*
X428Y24949D01*
X559Y24236D01*
X707Y23526D01*
X872Y22821D01*
X1054Y22119D01*
X1253Y21422D01*
X1468Y20729D01*
X1701Y20043D01*
X1950Y19362D01*
X2215Y18687D01*
X2496Y18019D01*
X2794Y17358D01*
X3107Y16704D01*
X3436Y16058D01*
X3781Y15420D01*
X4141Y14791D01*
X4516Y14171D01*
X4906Y13560D01*
X5310Y12958D01*
X5729Y12366D01*
X6163Y11785D01*
X6610Y11214D01*
X7071Y10655D01*
X7545Y10106D01*
X8032Y9570D01*
X8532Y9045D01*
X9045Y8532D01*
X9570Y8032D01*
X10106Y7545D01*
X10655Y7071D01*
X11214Y6610D01*
X11785Y6163D01*
X12366Y5729D01*
X12958Y5310D01*
X13560Y4906D01*
X14171Y4516D01*
X14791Y4141D01*
X15420Y3781D01*
X16058Y3436D01*
X16704Y3107D01*
X17358Y2794D01*
X18019Y2496D01*
X18687Y2215D01*
X19362Y1950D01*
X20043Y1701D01*
X20729Y1468D01*
X21422Y1253D01*
X22119Y1054D01*
X22821Y872D01*
X23526Y707D01*
X24236Y559D01*
X24949Y428D01*
X25665Y315D01*
X26384Y219D01*
X27105Y140D01*
X27827Y79D01*
X28551Y35D01*
X29275Y9D01*
X30000Y0D01*
X0Y970000D02*
X9Y970725D01*
X35Y971449D01*
X79Y972173D01*
X140Y972895D01*
X219Y973616D01*
X315Y974335D01*
X428Y975051D01*
X559Y975764D01*
X707Y976474D01*
X872Y977179D01*
X1054Y977881D01*
X1253Y978578D01*
X1468Y979271D01*
X1701Y979957D01*
X1950Y980638D01*
X2215Y981313D01*
X2496Y981981D01*
X2794Y982642D01*
X3107Y983296D01*
X3436Y983942D01*
X3781Y984580D01*
X4141Y985209D01*
X4516Y985829D01*
X4906Y986440D01*
X5310Y987042D01*
X5729Y987634D01*
X6163Y988215D01*
X6610Y988786D01*
X7071Y989345D01*
X7545Y989894D01*
X8032Y990430D01*
X8532Y990955D01*
X9045Y991468D01*
X9570Y991968D01*
X10106Y992455D01*
X10655Y992929D01*
X11214Y993390D01*
X11785Y993837D01*
X12366Y994271D01*
X12958Y994690D01*
X13560Y995094D01*
X14171Y995484D01*
X14791Y995859D01*
X15420Y996219D01*
X16058Y996564D01*
X16704Y996893D01*
X17358Y997206D01*
X18019Y997504D01*
X18687Y997785D01*
X19362Y998050D01*
X20043Y998299D01*
X20729Y998532D01*
X21422Y998747D01*
X22119Y998946D01*
X22821Y999128D01*
X23526Y999293D01*
X24236Y999441D01*
X24949Y999572D01*
X25665Y999685D01*
X26384Y999781D01*
X27105Y999860D01*
X27827Y999921D01*
X28551Y999965D01*
X29275Y999991D01*
X30000Y1000000D01*
X970000Y1000000D02*
X970725Y999991D01*
X971449Y999965D01*
X972173Y999921D01*
X972895Y999860D01*
X973616Y999781D01*
X974335Y999685D01*
X975051Y999572D01*
X975764Y999441D01*
X976474Y999293D01*
X977179Y999128D01*
X977881Y998946D01*
X978578Y998747D01*
X979271Y998532D01*
X979957Y998299D01*
X980638Y998050D01*
X981313Y997785D01*
X981981Y997504D01*
X982642Y997206D01*
X983296Y996893D01*
X983942Y996564D01*
X984580Y996219D01*
X985209Y995859D01*
X985829Y995484D01*
X986440Y995094D01*
X987042Y994690D01*
X987634Y994271D01*
X988215Y993837D01*
X988786Y993390D01*
X989345Y992929D01*
X989894Y992455D01*
X990430Y991968D01*
X990955Y991468D01*
X991468Y990955D01*
X991968Y990430D01*
X992455Y989894D01*
X992929Y989345D01*
X993390Y988786D01*
X993837Y988215D01*
X994271Y987634D01*
X994690Y987042D01*
X995094Y986440D01*
X995484Y985829D01*
X995859Y985209D01*
X996219Y984580D01*
X996564Y983942D01*
X996893Y983296D01*
X997206Y982642D01*
X997504Y981981D01*
X997785Y981313D01*
X998050Y980638D01*
X998299Y979957D01*
X998532Y979271D01*
X998747Y978578D01*
X998946Y977881D01*
X999128Y977179D01*
X999293Y976474D01*
X999441Y975764D01*
X999572Y975051D01*
X999685Y974335D01*
X999781Y973616D01*
X999860Y972895D01*
X999921Y972173D01*
X999965Y971449D01*
X999991Y970725D01*
X1000000Y970000D01*
X1000000Y30000D02*
X999991Y29275D01*
X999965Y28551D01*
X999921Y27827D01*
X999860Y27105D01*
X999781Y26384D01*
X999685Y25665D01*
X999572Y24949D01*
X999441Y24236D01*
X999293Y23526D01*
X999128Y22821D01*
X998946Y22119D01*
X998747Y21422D01*
X998532Y20729D01*
X998299Y20043D01*
X998050Y19362D01*
X997785Y18687D01*
X997504Y18019D01*
X997206Y17358D01*
X996893Y16704D01*
X996564Y16058D01*
X996219Y15420D01*
X995859Y14791D01*
X995484Y14171D01*
X995094Y13560D01*
X994690Y12958D01*
X994271Y12366D01*
X993837Y11785D01*
X993390Y11214D01*
X992929Y10655D01*
X992455Y10106D01*
X991968Y9570D01*
X991468Y9045D01*
X990955Y8532D01*
X990430Y8032D01*
X989894Y7545D01*
X989345Y7071D01*
X988786Y6610D01*
X988215Y6163D01*
X987634Y5729D01*
X987042Y5310D01*
X986440Y4906D01*
X985829Y4516D01*
X985209Y4141D01*
X984580Y3781D01*
X983942Y3436D01*
X983296Y3107D01*
X982642Y2794D01*
X981981Y2496D01*
X981313Y2215D01*
X980638Y1950D01*
X979957Y1701D01*
X979271Y1468D01*
X978578Y1253D01*
X977881Y1054D01*
X977179Y872D01*
X976474Y707D01*
X975764Y559D01*
X975051Y428D01*
X974335Y315D01*
X973616Y219D01*
X972895Y140D01*
X972173Y79D01*
X971449Y35D01*
X970725Y9D01*
X970000Y0D01*
D11*
X30000Y30000D03*
X30000Y970000D03*
X970000Y30000D03*
X970000Y970000D03*
D12*
X861060Y947120D03*
D13*
X886460Y947120D03*
X861060Y921720D03*
X861060Y642320D03*
X886460Y921720D03*
X886460Y896320D03*
X861060Y896320D03*
X886460Y870920D03*
X861060Y870920D03*
X886460Y845520D03*
X861060Y845520D03*
X886460Y820120D03*
X861060Y820120D03*
X886460Y794720D03*
X861060Y794720D03*
X886460Y769320D03*
X861060Y769320D03*
X886460Y743920D03*
X861060Y743920D03*
X886460Y718520D03*
X861060Y718520D03*
X886460Y693120D03*
X861060Y693120D03*
X886460Y667720D03*
X861060Y667720D03*
X886460Y642320D03*
D12*
X99060Y947120D03*
D13*
X124460Y947120D03*
X99060Y921720D03*
X99060Y642320D03*
X124460Y921720D03*
X124460Y896320D03*
X99060Y896320D03*
X124460Y870920D03*
X99060Y870920D03*
X124460Y845520D03*
X99060Y845520D03*
X124460Y820120D03*
X99060Y820120D03*
X124460Y794720D03*
X99060Y794720D03*
X124460Y769320D03*
X99060Y769320D03*
X124460Y743920D03*
X99060Y743920D03*
X124460Y718520D03*
X99060Y718520D03*
X124460Y693120D03*
X99060Y693120D03*
X124460Y667720D03*
X99060Y667720D03*
X124460Y642320D03*
D12*
X289560Y947120D03*
D13*
X314960Y947120D03*
X289560Y921720D03*
X289560Y642320D03*
X314960Y921720D03*
X314960Y896320D03*
X289560Y896320D03*
X314960Y870920D03*
X289560Y870920D03*
X314960Y845520D03*
X289560Y845520D03*
X314960Y820120D03*
X289560Y820120D03*
X314960Y794720D03*
X289560Y794720D03*
X314960Y769320D03*
X289560Y769320D03*
X314960Y743920D03*
X289560Y743920D03*
X314960Y718520D03*
X289560Y718520D03*
X314960Y693120D03*
X289560Y693120D03*
X314960Y667720D03*
X289560Y667720D03*
X314960Y642320D03*
D12*
X480060Y947120D03*
D13*
X505460Y947120D03*
X480060Y921720D03*
X480060Y642320D03*
X505460Y921720D03*
X505460Y896320D03*
X480060Y896320D03*
X505460Y870920D03*
X480060Y870920D03*
X505460Y845520D03*
X480060Y845520D03*
X505460Y820120D03*
X480060Y820120D03*
X505460Y794720D03*
X480060Y794720D03*
X505460Y769320D03*
X480060Y769320D03*
X505460Y743920D03*
X480060Y743920D03*
X505460Y718520D03*
X480060Y718520D03*
X505460Y693120D03*
X480060Y693120D03*
X505460Y667720D03*
X480060Y667720D03*
X505460Y642320D03*
D12*
X670560Y947120D03*
D13*
X695960Y947120D03*
X670560Y921720D03*
X670560Y642320D03*
X695960Y921720D03*
X695960Y896320D03*
X670560Y896320D03*
X695960Y870920D03*
X670560Y870920D03*
X695960Y845520D03*
X670560Y845520D03*
X695960Y820120D03*
X670560Y820120D03*
X695960Y794720D03*
X670560Y794720D03*
X695960Y769320D03*
X670560Y769320D03*
X695960Y743920D03*
X670560Y743920D03*
X695960Y718520D03*
X670560Y718520D03*
X695960Y693120D03*
X670560Y693120D03*
X695960Y667720D03*
X670560Y667720D03*
X695960Y642320D03*
D14*
X976630Y845320D03*
D15*
X976630Y820320D03*
D16*
X166070Y381410D03*
X166070Y356410D03*
X166070Y336410D03*
X166070Y311410D03*
X138970Y381410D03*
X138970Y356410D03*
X138970Y336410D03*
X138970Y311410D03*
D17*
X166970Y412110D03*
X166970Y280710D03*
X110970Y412110D03*
X110970Y280710D03*
D18*
X44250Y850810D03*
X44250Y833810D03*
D19*
X19050Y833950D03*
X19050Y816450D03*
D20*
X207010Y850600D03*
D21*
X207010Y815600D03*
D20*
X397510Y851870D03*
D21*
X397510Y816870D03*
D20*
X588010Y850600D03*
D21*
X588010Y815600D03*
D20*
X778510Y850600D03*
D21*
X778510Y815600D03*
D22*
G36*
X654523Y409723D02*
X661876Y417076D01*
X667603Y411349D01*
X660250Y403996D01*
X654523Y409723D01*
G37*
G36*
X644341Y419905D02*
X651694Y427258D01*
X657421Y421531D01*
X650068Y414178D01*
X644341Y419905D01*
G37*
G36*
X684530Y440999D02*
X691883Y448352D01*
X697610Y442625D01*
X690257Y435272D01*
X684530Y440999D01*
G37*
G36*
X674348Y451182D02*
X681701Y458535D01*
X687428Y452808D01*
X680075Y445455D01*
X674348Y451182D01*
G37*
G36*
X670162Y425361D02*
X677515Y432714D01*
X683242Y426987D01*
X675889Y419634D01*
X670162Y425361D01*
G37*
G36*
X659980Y435543D02*
X667333Y442896D01*
X673060Y437169D01*
X665707Y429816D01*
X659980Y435543D01*
G37*
G36*
X434949Y370904D02*
X427596Y363551D01*
X421869Y369278D01*
X429222Y376631D01*
X434949Y370904D01*
G37*
G36*
X445131Y360722D02*
X437778Y353369D01*
X432051Y359096D01*
X439404Y366449D01*
X445131Y360722D01*
G37*
G36*
X507873Y505146D02*
X515226Y497793D01*
X509499Y492066D01*
X502146Y499419D01*
X507873Y505146D01*
G37*
G36*
X518055Y515328D02*
X525408Y507975D01*
X519681Y502248D01*
X512328Y509601D01*
X518055Y515328D01*
G37*
G36*
X536610Y476409D02*
X543963Y469056D01*
X538236Y463329D01*
X530883Y470682D01*
X536610Y476409D01*
G37*
G36*
X546792Y486591D02*
X554145Y479238D01*
X548418Y473511D01*
X541065Y480864D01*
X546792Y486591D01*
G37*
G36*
X533759Y271125D02*
X541112Y278478D01*
X546839Y272751D01*
X539486Y265398D01*
X533759Y271125D01*
G37*
G36*
X523577Y281308D02*
X530930Y288661D01*
X536657Y282934D01*
X529304Y275581D01*
X523577Y281308D01*
G37*
G36*
X522241Y490778D02*
X529594Y483425D01*
X523867Y477698D01*
X516514Y485051D01*
X522241Y490778D01*
G37*
G36*
X532424Y500960D02*
X539777Y493607D01*
X534050Y487880D01*
X526697Y495233D01*
X532424Y500960D01*
G37*
G36*
X519391Y256757D02*
X526744Y264110D01*
X532471Y258383D01*
X525118Y251030D01*
X519391Y256757D01*
G37*
G36*
X509208Y266939D02*
X516561Y274292D01*
X522288Y268565D01*
X514935Y261212D01*
X509208Y266939D01*
G37*
G36*
X419449Y353904D02*
X412096Y346551D01*
X406369Y352278D01*
X413722Y359631D01*
X419449Y353904D01*
G37*
G36*
X429631Y343722D02*
X422278Y336369D01*
X416551Y342096D01*
X423904Y349449D01*
X429631Y343722D01*
G37*
G36*
X505022Y242389D02*
X512375Y249742D01*
X518102Y244015D01*
X510749Y236662D01*
X505022Y242389D01*
G37*
G36*
X494840Y252571D02*
X502193Y259924D01*
X507920Y254197D01*
X500567Y246844D01*
X494840Y252571D01*
G37*
G36*
X451449Y385904D02*
X444096Y378551D01*
X438369Y384278D01*
X445722Y391631D01*
X451449Y385904D01*
G37*
G36*
X461631Y375722D02*
X454278Y368369D01*
X448551Y374096D01*
X455904Y381449D01*
X461631Y375722D01*
G37*
G36*
X490654Y228020D02*
X498007Y235373D01*
X503734Y229646D01*
X496381Y222293D01*
X490654Y228020D01*
G37*
G36*
X480471Y238202D02*
X487824Y245555D01*
X493551Y239828D01*
X486198Y232475D01*
X480471Y238202D01*
G37*
G36*
X605952Y504655D02*
X598599Y497302D01*
X592872Y503029D01*
X600225Y510382D01*
X605952Y504655D01*
G37*
G36*
X616134Y494473D02*
X608781Y487120D01*
X603054Y492847D01*
X610407Y500200D01*
X616134Y494473D01*
G37*
G36*
X591584Y490286D02*
X584231Y482933D01*
X578504Y488660D01*
X585857Y496013D01*
X591584Y490286D01*
G37*
G36*
X601766Y480104D02*
X594413Y472751D01*
X588686Y478478D01*
X596039Y485831D01*
X601766Y480104D01*
G37*
D12*
X807230Y92410D03*
D23*
X832230Y92410D03*
X857230Y92410D03*
X882230Y92410D03*
X907230Y92410D03*
D12*
X651020Y92410D03*
D23*
X676020Y92410D03*
X701020Y92410D03*
X726020Y92410D03*
X751020Y92410D03*
D12*
X340440Y91910D03*
D23*
X365440Y91910D03*
X390440Y91910D03*
X415440Y91910D03*
X440440Y91910D03*
D24*
X862850Y321260D03*
X862850Y400760D03*
X907850Y321260D03*
X907850Y400760D03*
D25*
X968502Y442610D02*
X982218Y442610D01*
X982218Y417210D02*
X968502Y417210D01*
X968502Y391810D02*
X982218Y391810D01*
X982218Y366410D02*
X968502Y366410D01*
X968502Y341010D02*
X982218Y341010D01*
X982218Y315610D02*
X968502Y315610D01*
D26*
X35960Y97120D03*
X53460Y97120D03*
X73110Y95190D03*
X90610Y95190D03*
D12*
X905000Y192500D03*
D27*
X905000Y217500D03*
X905000Y242500D03*
X905000Y267500D03*
D26*
X193150Y165700D03*
X210650Y165700D03*
D19*
X198300Y230700D03*
X198300Y213200D03*
D26*
X193850Y126600D03*
X211350Y126600D03*
X197850Y75000D03*
X215350Y75000D03*
X138750Y125000D03*
X156250Y125000D03*
X156750Y75000D03*
X139250Y75000D03*
X138750Y166000D03*
X156250Y166000D03*
D19*
X148770Y230700D03*
X148770Y213200D03*
X49530Y599280D03*
X49530Y616780D03*
D26*
X44310Y641050D03*
X26810Y641050D03*
X55740Y563580D03*
X38240Y563580D03*
X234810Y667720D03*
X217310Y667720D03*
X276720Y561040D03*
X259220Y561040D03*
X425310Y667720D03*
X407810Y667720D03*
X460870Y561040D03*
X443370Y561040D03*
X615810Y667720D03*
X598310Y667720D03*
X655180Y559770D03*
X637680Y559770D03*
X806310Y667720D03*
X788810Y667720D03*
X850760Y561040D03*
X833260Y561040D03*
X44310Y667720D03*
X26810Y667720D03*
X116700Y558500D03*
X99200Y558500D03*
X201790Y602950D03*
X184290Y602950D03*
X234810Y642320D03*
X217310Y642320D03*
X201790Y577550D03*
X184290Y577550D03*
X393560Y600410D03*
X376060Y600410D03*
X425310Y642320D03*
X407810Y642320D03*
X393560Y576280D03*
X376060Y576280D03*
X582790Y601680D03*
X565290Y601680D03*
X615810Y642320D03*
X598310Y642320D03*
X582790Y576280D03*
X565290Y576280D03*
X775830Y602950D03*
X758330Y602950D03*
X806310Y642320D03*
X788810Y642320D03*
X775830Y577550D03*
X758330Y577550D03*
D28*
X762000Y383240D03*
X762000Y408640D03*
X787400Y383240D03*
X787400Y408640D03*
X812800Y383240D03*
X812800Y408640D03*
D26*
X882770Y124160D03*
X900270Y124160D03*
X726560Y122890D03*
X744060Y122890D03*
X415980Y122390D03*
X433480Y122390D03*
X840580Y124160D03*
X823080Y124160D03*
X684370Y124160D03*
X666870Y124160D03*
X373790Y122390D03*
X356290Y122390D03*
X900270Y147020D03*
X882770Y147020D03*
X744060Y147020D03*
X726560Y147020D03*
X433480Y146520D03*
X415980Y146520D03*
X373790Y146520D03*
X356290Y146520D03*
X684370Y147020D03*
X666870Y147020D03*
X840580Y147020D03*
X823080Y147020D03*
D12*
X258840Y93050D03*
D23*
X283840Y93050D03*
D29*
X961390Y569610D02*
X976630Y569610D01*
X976630Y544210D02*
X961390Y544210D01*
X961390Y518810D02*
X976630Y518810D01*
X976630Y493410D02*
X961390Y493410D01*
D12*
X144570Y23830D03*
D30*
X119570Y23830D03*
X94570Y23830D03*
D12*
X94130Y502420D03*
D31*
X94130Y477420D03*
D14*
X827330Y233380D03*
D15*
X827330Y208380D03*
D32*
X680250Y245500D03*
X759750Y245500D03*
X680250Y200500D03*
X759750Y200500D03*
D22*
G36*
X640904Y293551D02*
X633551Y300904D01*
X639278Y306631D01*
X646631Y299278D01*
X640904Y293551D01*
G37*
G36*
X630722Y283369D02*
X623369Y290722D01*
X629096Y296449D01*
X636449Y289096D01*
X630722Y283369D01*
G37*
D26*
X757600Y273000D03*
X775100Y273000D03*
D33*
X758350Y292000D03*
X775350Y292000D03*
D34*
G36*
X566381Y313620D02*
X576810Y303191D01*
X574689Y301070D01*
X564260Y311499D01*
X566381Y313620D01*
G37*
G36*
X569917Y317156D02*
X580346Y306727D01*
X578225Y304606D01*
X567796Y315035D01*
X569917Y317156D01*
G37*
G36*
X573452Y320692D02*
X583881Y310263D01*
X581760Y308142D01*
X571331Y318571D01*
X573452Y320692D01*
G37*
G36*
X576988Y324227D02*
X587417Y313798D01*
X585296Y311677D01*
X574867Y322106D01*
X576988Y324227D01*
G37*
G36*
X580523Y327763D02*
X590952Y317334D01*
X588831Y315213D01*
X578402Y325642D01*
X580523Y327763D01*
G37*
G36*
X584059Y331298D02*
X594488Y320869D01*
X592367Y318748D01*
X581938Y329177D01*
X584059Y331298D01*
G37*
G36*
X587594Y334834D02*
X598023Y324405D01*
X595902Y322284D01*
X585473Y332713D01*
X587594Y334834D01*
G37*
G36*
X591130Y338369D02*
X601559Y327940D01*
X599438Y325819D01*
X589009Y336248D01*
X591130Y338369D01*
G37*
G36*
X594665Y341905D02*
X605094Y331476D01*
X602973Y329355D01*
X592544Y339784D01*
X594665Y341905D01*
G37*
G36*
X598201Y345440D02*
X608630Y335011D01*
X606509Y332890D01*
X596080Y343319D01*
X598201Y345440D01*
G37*
G36*
X601736Y348976D02*
X612165Y338547D01*
X610044Y336426D01*
X599615Y346855D01*
X601736Y348976D01*
G37*
G36*
X605272Y352511D02*
X615701Y342082D01*
X613580Y339961D01*
X603151Y350390D01*
X605272Y352511D01*
G37*
G36*
X608808Y356047D02*
X619237Y345618D01*
X617116Y343497D01*
X606687Y353926D01*
X608808Y356047D01*
G37*
G36*
X612343Y359582D02*
X622772Y349153D01*
X620651Y347032D01*
X610222Y357461D01*
X612343Y359582D01*
G37*
G36*
X615879Y363118D02*
X626308Y352689D01*
X624187Y350568D01*
X613758Y360997D01*
X615879Y363118D01*
G37*
G36*
X619414Y366653D02*
X629843Y356224D01*
X627722Y354103D01*
X617293Y364532D01*
X619414Y366653D01*
G37*
G36*
X617293Y384339D02*
X627722Y394768D01*
X629843Y392647D01*
X619414Y382218D01*
X617293Y384339D01*
G37*
G36*
X613758Y387875D02*
X624187Y398304D01*
X626308Y396183D01*
X615879Y385754D01*
X613758Y387875D01*
G37*
G36*
X610222Y391410D02*
X620651Y401839D01*
X622772Y399718D01*
X612343Y389289D01*
X610222Y391410D01*
G37*
G36*
X606687Y394946D02*
X617116Y405375D01*
X619237Y403254D01*
X608808Y392825D01*
X606687Y394946D01*
G37*
G36*
X603151Y398481D02*
X613580Y408910D01*
X615701Y406789D01*
X605272Y396360D01*
X603151Y398481D01*
G37*
G36*
X599615Y402017D02*
X610044Y412446D01*
X612165Y410325D01*
X601736Y399896D01*
X599615Y402017D01*
G37*
G36*
X596080Y405552D02*
X606509Y415981D01*
X608630Y413860D01*
X598201Y403431D01*
X596080Y405552D01*
G37*
G36*
X592544Y409088D02*
X602973Y419517D01*
X605094Y417396D01*
X594665Y406967D01*
X592544Y409088D01*
G37*
G36*
X589009Y412623D02*
X599438Y423052D01*
X601559Y420931D01*
X591130Y410502D01*
X589009Y412623D01*
G37*
G36*
X585473Y416159D02*
X595902Y426588D01*
X598023Y424467D01*
X587594Y414038D01*
X585473Y416159D01*
G37*
G36*
X581938Y419694D02*
X592367Y430123D01*
X594488Y428002D01*
X584059Y417573D01*
X581938Y419694D01*
G37*
G36*
X578402Y423230D02*
X588831Y433659D01*
X590952Y431538D01*
X580523Y421109D01*
X578402Y423230D01*
G37*
G36*
X574867Y426765D02*
X585296Y437194D01*
X587417Y435073D01*
X576988Y424644D01*
X574867Y426765D01*
G37*
G36*
X571331Y430301D02*
X581760Y440730D01*
X583881Y438609D01*
X573452Y428180D01*
X571331Y430301D01*
G37*
G36*
X567796Y433837D02*
X578225Y444266D01*
X580346Y442145D01*
X569917Y431716D01*
X567796Y433837D01*
G37*
G36*
X564260Y437372D02*
X574689Y447801D01*
X576810Y445680D01*
X566381Y435251D01*
X564260Y437372D01*
G37*
G36*
X538267Y447801D02*
X548696Y437372D01*
X546575Y435251D01*
X536146Y445680D01*
X538267Y447801D01*
G37*
G36*
X534731Y444266D02*
X545160Y433837D01*
X543039Y431716D01*
X532610Y442145D01*
X534731Y444266D01*
G37*
G36*
X531196Y440730D02*
X541625Y430301D01*
X539504Y428180D01*
X529075Y438609D01*
X531196Y440730D01*
G37*
G36*
X527660Y437194D02*
X538089Y426765D01*
X535968Y424644D01*
X525539Y435073D01*
X527660Y437194D01*
G37*
G36*
X524124Y433659D02*
X534553Y423230D01*
X532432Y421109D01*
X522003Y431538D01*
X524124Y433659D01*
G37*
G36*
X520589Y430123D02*
X531018Y419694D01*
X528897Y417573D01*
X518468Y428002D01*
X520589Y430123D01*
G37*
G36*
X517053Y426588D02*
X527482Y416159D01*
X525361Y414038D01*
X514932Y424467D01*
X517053Y426588D01*
G37*
G36*
X513518Y423052D02*
X523947Y412623D01*
X521826Y410502D01*
X511397Y420931D01*
X513518Y423052D01*
G37*
G36*
X509982Y419517D02*
X520411Y409088D01*
X518290Y406967D01*
X507861Y417396D01*
X509982Y419517D01*
G37*
G36*
X506447Y415981D02*
X516876Y405552D01*
X514755Y403431D01*
X504326Y413860D01*
X506447Y415981D01*
G37*
G36*
X502911Y412446D02*
X513340Y402017D01*
X511219Y399896D01*
X500790Y410325D01*
X502911Y412446D01*
G37*
G36*
X499376Y408910D02*
X509805Y398481D01*
X507684Y396360D01*
X497255Y406789D01*
X499376Y408910D01*
G37*
G36*
X495840Y405375D02*
X506269Y394946D01*
X504148Y392825D01*
X493719Y403254D01*
X495840Y405375D01*
G37*
G36*
X492305Y401839D02*
X502734Y391410D01*
X500613Y389289D01*
X490184Y399718D01*
X492305Y401839D01*
G37*
G36*
X488769Y398304D02*
X499198Y387875D01*
X497077Y385754D01*
X486648Y396183D01*
X488769Y398304D01*
G37*
G36*
X485234Y394768D02*
X495663Y384339D01*
X493542Y382218D01*
X483113Y392647D01*
X485234Y394768D01*
G37*
G36*
X483113Y356224D02*
X493542Y366653D01*
X495663Y364532D01*
X485234Y354103D01*
X483113Y356224D01*
G37*
G36*
X486648Y352689D02*
X497077Y363118D01*
X499198Y360997D01*
X488769Y350568D01*
X486648Y352689D01*
G37*
G36*
X490184Y349153D02*
X500613Y359582D01*
X502734Y357461D01*
X492305Y347032D01*
X490184Y349153D01*
G37*
G36*
X493719Y345618D02*
X504148Y356047D01*
X506269Y353926D01*
X495840Y343497D01*
X493719Y345618D01*
G37*
G36*
X497255Y342082D02*
X507684Y352511D01*
X509805Y350390D01*
X499376Y339961D01*
X497255Y342082D01*
G37*
G36*
X500790Y338547D02*
X511219Y348976D01*
X513340Y346855D01*
X502911Y336426D01*
X500790Y338547D01*
G37*
G36*
X504326Y335011D02*
X514755Y345440D01*
X516876Y343319D01*
X506447Y332890D01*
X504326Y335011D01*
G37*
G36*
X507861Y331476D02*
X518290Y341905D01*
X520411Y339784D01*
X509982Y329355D01*
X507861Y331476D01*
G37*
G36*
X511397Y327940D02*
X521826Y338369D01*
X523947Y336248D01*
X513518Y325819D01*
X511397Y327940D01*
G37*
G36*
X514932Y324405D02*
X525361Y334834D01*
X527482Y332713D01*
X517053Y322284D01*
X514932Y324405D01*
G37*
G36*
X518468Y320869D02*
X528897Y331298D01*
X531018Y329177D01*
X520589Y318748D01*
X518468Y320869D01*
G37*
G36*
X522003Y317334D02*
X532432Y327763D01*
X534553Y325642D01*
X524124Y315213D01*
X522003Y317334D01*
G37*
G36*
X525539Y313798D02*
X535968Y324227D01*
X538089Y322106D01*
X527660Y311677D01*
X525539Y313798D01*
G37*
G36*
X529075Y310263D02*
X539504Y320692D01*
X541625Y318571D01*
X531196Y308142D01*
X529075Y310263D01*
G37*
G36*
X532610Y306727D02*
X543039Y317156D01*
X545160Y315035D01*
X534731Y304606D01*
X532610Y306727D01*
G37*
G36*
X536146Y303191D02*
X546575Y313620D01*
X548696Y311499D01*
X538267Y301070D01*
X536146Y303191D01*
G37*
D22*
G36*
X401949Y337904D02*
X394596Y330551D01*
X388869Y336278D01*
X396222Y343631D01*
X401949Y337904D01*
G37*
G36*
X412131Y327722D02*
X404778Y320369D01*
X399051Y326096D01*
X406404Y333449D01*
X412131Y327722D01*
G37*
D12*
X496272Y92200D03*
D23*
X521272Y92200D03*
X546272Y92200D03*
X571272Y92200D03*
X596272Y92200D03*
D26*
X571256Y124986D03*
X588756Y124986D03*
X588744Y148580D03*
X571244Y148580D03*
X533244Y124542D03*
X515744Y124542D03*
X534244Y149108D03*
X516744Y149108D03*
D35*
X26886Y159012D03*
X50000Y159012D03*
X73114Y159012D03*
D36*
X50000Y220990D03*
M02*
