M48
;GenerationSoftware,Autodesk,EAGLE,9.6.2*%
;CreationDate,2023-12-29T08:04:44Z*%
FMAT,2
ICI,OFF
METRIC,TZ,000.000
T9C0.350
T8C0.800
T7C0.900
T6C0.914
T5C1.000
T4C1.016
T3C1.100
T2C2.500
T1C2.540
%
G90
M71
T1
X2921Y89632
X2921Y76424
T2
X16697Y41211
X16697Y28071
X11097Y41211
X11097Y28071
T3
X16607Y38141
X16607Y35641
X16607Y33641
X16607Y31141
X13897Y38141
X13897Y35641
X13897Y33641
X13897Y31141
T4
X76200Y38324
X76200Y40864
X78740Y38324
X78740Y40864
X81280Y38324
X81280Y40864
X96901Y56961
X96901Y54421
X96901Y51881
X96901Y49341
T5
X88646Y69312
X86106Y69312
X88646Y66772
X86106Y66772
X88646Y64232
X9906Y94712
X12446Y94712
X9906Y92172
X9906Y64232
X12446Y92172
X12446Y89632
X9906Y89632
X12446Y87092
X9906Y87092
X12446Y84552
X9906Y84552
X12446Y82012
X9906Y82012
X12446Y79472
X9906Y79472
X12446Y76932
X9906Y76932
X12446Y74392
X9906Y74392
X12446Y71852
X9906Y71852
X12446Y69312
X9906Y69312
X12446Y66772
X9906Y66772
X12446Y64232
X28956Y94712
X31496Y94712
X28956Y92172
X28956Y64232
X31496Y92172
X31496Y89632
X28956Y89632
X31496Y87092
X28956Y87092
X31496Y84552
X28956Y84552
X31496Y82012
X28956Y82012
X31496Y79472
X28956Y79472
X31496Y76932
X28956Y76932
X31496Y74392
X28956Y74392
X31496Y71852
X28956Y71852
X31496Y69312
X28956Y69312
X31496Y66772
X28956Y66772
X31496Y64232
X48006Y94712
X50546Y94712
X48006Y92172
X48006Y64232
X50546Y92172
X50546Y89632
X48006Y89632
X50546Y87092
X48006Y87092
X50546Y84552
X48006Y84552
X50546Y82012
X48006Y82012
X50546Y79472
X48006Y79472
X50546Y76932
X48006Y76932
X50546Y74392
X48006Y74392
X50546Y71852
X48006Y71852
X50546Y69312
X48006Y69312
X50546Y66772
X48006Y66772
X50546Y64232
X67056Y94712
X69596Y94712
X67056Y92172
X67056Y64232
X69596Y92172
X69596Y89632
X69596Y87092
X67056Y87092
X69596Y84552
X67056Y84552
X69596Y82012
X67056Y82012
X69596Y79472
X67056Y79472
X69596Y76932
X67056Y76932
X69596Y74392
X67056Y74392
X69596Y71852
X67056Y71852
X69596Y69312
X67056Y69312
X69596Y66772
X67056Y66772
X69596Y64232
X97663Y84532
X97663Y82032
X67056Y89632
X86106Y94712
X88646Y94712
X86106Y92172
X86106Y64232
X88646Y92172
X88646Y89632
X86106Y89632
X88646Y87092
X86106Y87092
X88646Y84552
X86106Y84552
X88646Y82012
X86106Y82012
X88646Y79472
X86106Y79472
X88646Y76932
X86106Y76932
X88646Y74392
X86106Y74392
X88646Y71852
X86106Y71852
X82733Y23338
X82733Y20838
T6
X97536Y41721
X97536Y39181
X97536Y36641
X97536Y34101
X97536Y31561
X97536Y44261
T7
X90723Y9241
X65102Y9241
X67602Y9241
X70102Y9241
X72602Y9241
X75102Y9241
X34044Y9191
X36544Y9191
X39044Y9191
X41544Y9191
X44044Y9191
X90500Y19250
X90500Y21750
X59627Y9220
X90500Y26750
X57127Y9220
X25884Y9305
X28384Y9305
X90500Y24250
X80723Y9241
X83223Y9241
X14457Y2383
X11957Y2383
X9457Y2383
X9413Y50242
X9413Y47742
X85723Y9241
X88223Y9241
X49627Y9220
X52127Y9220
X54627Y9220
T8
X20701Y85060
X58801Y81560
X20701Y81560
X39751Y85187
X39751Y81687
X77851Y81560
X58801Y85060
X77851Y85060
T9
X53940Y18643
X57940Y21643
X60940Y19643
X63731Y19232
X65531Y16492
X64768Y21731
X63731Y24232
X67940Y21643
X94281Y45532
X86371Y46592
X82731Y50232
X91731Y50232
X80808Y54948
X91758Y54148
X8382Y21052
X12440Y14593
X24981Y12882
X25440Y17993
X27820Y17063
X37681Y6082
X40431Y6082
X76431Y17732
X33290Y20963
X83482Y16738
X80482Y17738
X62482Y16398
X12940Y53643
X20940Y52643
X67642Y32585
X94469Y6288
X98469Y8288
X93731Y35232
X95731Y26232
X68441Y16072
X30769Y46820
X24769Y46820
X35769Y46820
X41296Y19625
X27466Y13305
X37296Y24625
X21296Y26625
X70915Y31910
X74550Y35545
X64214Y49262
X67214Y52262
X64214Y53262
X69214Y54262
X75214Y54262
X73861Y19340
X69991Y19420
X51147Y21151
X62196Y12515
X41114Y16452
X46067Y5911
X53052Y6419
X57497Y6292
X63085Y5911
X68292Y6292
X72102Y6165
X84326Y6574
X87882Y6574
X98804Y16480
X98931Y21433
X69817Y49563
X75786Y49817
X79469Y49817
X10414Y52929
X70266Y16948
X18288Y34641
X23845Y35219
X20599Y36840
X25781Y32990
X34036Y37562
X32258Y38959
X47286Y44657
X55328Y45106
X54820Y39391
X1143Y38832
X1143Y44420
X6193Y25568
X6193Y31029
X17115Y12360
X30891Y5883
X60149Y30807
X63873Y12452
X72978Y31308
X76407Y34737
X75772Y31308
X80217Y29276
X30847Y26092
X17701Y22875
X54561Y29664
X57408Y28256
X55434Y26602
X46649Y39911
X54576Y10864
X99058Y66648
X98968Y62928
X97058Y67648
X94058Y67648
X55058Y67648
X17058Y67648
X72164Y49892
X5114Y11217
X8694Y14487
X1143Y63407
X1016Y55660
X1016Y48660
X6016Y36660
X1016Y28660
X61214Y47262
X61214Y53262
X59214Y55262
X61214Y56262
X62616Y37377
X65915Y28910
X70035Y28380
X88501Y32770
X47010Y25687
X42100Y32757
X48860Y37437
X51600Y36337
X56600Y35337
X12940Y48643
X44520Y46973
X40180Y46783
X52031Y28674
X26847Y23092
X32847Y28092
X34847Y30092
X41057Y30252
X38117Y30252
X41067Y28562
X36447Y28552
X33077Y25502
X33117Y23172
X36887Y26842
X40887Y26862
X30627Y20642
X13641Y23815
X26961Y1195
X33961Y1195
X39961Y1195
X52961Y1195
X60961Y1195
X68961Y1195
X77961Y1195
X85961Y1195
X92961Y1195
X98961Y12195
X98961Y25195
X81961Y1195
X73961Y1195
X64961Y1195
X56961Y1195
X48961Y1195
X42961Y1195
X36961Y1195
X30961Y1195
X21961Y1195
X81915Y42261
X10961Y1195
X5961Y5195
X41961Y49195
X35961Y49195
X29961Y49195
X23961Y49195
X18961Y49195
X52231Y46625
X48551Y50755
X68479Y38292
X71479Y41292
X74479Y39292
X82139Y31792
X72139Y25792
X32940Y17643
X30940Y16643
X44296Y22625
X43296Y26625
X41296Y24625
X39296Y21625
X47296Y16625
X47296Y12625
X44296Y17625
X51076Y10245
X48940Y20643
X52940Y16643
X48940Y14643
X49940Y17643
X58310Y10253
X60420Y15433
X70560Y13193
X31244Y13494
X29244Y10494
X27244Y8494
X22994Y8204
X21994Y10204
X17994Y7204
X10994Y8204
X10244Y5354
X6984Y8234
X11654Y22534
X11654Y18534
X11654Y36534
X76531Y26027
X73531Y29027
X13911Y26477
X40911Y43477
X89019Y23070
X82019Y25070
X93019Y10070
X66596Y10325
X63596Y10325
X47596Y9325
X6086Y18565
X88566Y35914
X81566Y35914
X78566Y30914
X67566Y25914
X55566Y23914
X56186Y16314
X25186Y6314
X94186Y21314
X95186Y30314
X38019Y40070
X52220Y39891
X55570Y42481
X36378Y32168
X33448Y31728
X23508Y24598
X18508Y24598
X23069Y22241
X22649Y18061
X58343Y44727
X59523Y47929
X61991Y30241
X86285Y32126
X57280Y37720
X52000Y38352
X27879Y36630
X37000Y42000
X30050Y19100
X19830Y23070
X86840Y26750
X21148Y16577
X19830Y21320
X21135Y12660
X21535Y7500
X15625Y12500
X14670Y7593
X15625Y16600
X14816Y21263
X5037Y61753
X2681Y64105
X21731Y66772
X25847Y57304
X40781Y66772
X44262Y57304
X59831Y66772
X63711Y57177
X78881Y66772
X83326Y57247
X65593Y57177
X2681Y66772
X9850Y57200
X18429Y60295
X21731Y64232
X18429Y57755
X37635Y60107
X40781Y64232
X37606Y57628
X56558Y60234
X59831Y64232
X56529Y57628
X75833Y60295
X78881Y64232
X75833Y57755
X60650Y57700
X88263Y14659
X72656Y14702
X41598Y14652
X81786Y14659
X66038Y14659
X35107Y14609
X3749Y57558
X9016Y9519
X54245Y33613
X28400Y12750
X51079Y30921
X50000Y28000
X47650Y28620
X48300Y27039
X45000Y28000
X48000Y35000
X45433Y42632
X47000Y43089
X11670Y55850
X13955Y51135
X48641Y57515
X58000Y40000
X62771Y48229
X48150Y52120
X47573Y52757
X68326Y55642
X71040Y45340
X74050Y46100
X77588Y55000
X85076Y56104
X77152Y46055
X27672Y56104
X57124Y14858
X50633Y14906
X7112Y58644
X11750Y57200
X22098Y57755
X27747Y57304
X40767Y57755
X46162Y57304
X79248Y57882
X85151Y57304
X68025Y24550
X62991Y28991
X5343Y9694
X50673Y51278
X36450Y38950
X53012Y28212
X58409Y25859
X72770Y46510
X65088Y42072
X4995Y24320
X7311Y15901
X1143Y67407
X3556Y67788
X1016Y59660
X1016Y51786
X1016Y33371
X1143Y23592
X1065Y18622
X1084Y14167
X1143Y7066
X7096Y986
X84169Y27402
X98933Y28291
X98933Y32831
X98933Y42991
X93933Y42531
X98933Y46325
X98895Y50611
X90575Y45631
X99075Y55641
X98933Y59231
X93980Y56104
X90170Y67534
X91821Y64613
X91948Y60422
X89408Y60295
X87376Y63216
X87376Y65502
X84836Y67661
X82169Y66899
X84582Y64232
X85471Y61057
X86614Y58771
X88756Y56661
X77375Y62708
X81788Y64232
X78740Y59152
X80772Y60549
X77597Y67661
X76327Y64994
X76454Y59025
X72454Y55485
X74422Y57628
X85566Y41914
X81788Y57628
X87121Y29866
X86821Y54325
X91567Y30577
X71374Y35911
X78740Y34006
X84503Y34387
X84725Y38419
X92627Y40527
X87334Y50209
X69136Y58771
X72390Y59819
X72390Y64867
X71120Y67661
X65786Y67661
X73326Y23502
X70231Y65502
X68453Y62962
X66802Y61057
X63246Y66772
X65532Y64359
X64643Y57501
X59563Y58898
X61976Y60803
X62992Y63851
X80373Y45073
X58198Y52708
X58420Y67534
X51943Y67534
X53483Y63756
X53467Y60295
X50165Y58009
X57023Y58898
X85989Y10861
X79705Y24977
X54372Y53056
X57166Y50294
X75613Y45055
X66950Y41764
X65126Y39947
X91916Y25291
X84231Y19400
X78578Y19450
X87193Y16234
X38790Y15160
X39425Y10588
X33837Y14652
X34218Y11604
X91658Y15620
X76334Y5984
X76632Y10092
X77468Y13178
X79589Y14393
X80180Y5895
X49657Y53596
X47244Y55342
X65479Y35292
X19050Y56485
X21590Y58898
X15961Y1195
X27528Y53069
X24257Y57374
X15129Y56898
X15637Y64089
X20225Y62835
X22352Y65502
X53616Y55711
X41656Y67661
X25019Y66772
X30226Y67661
X17226Y52502
X32131Y65502
X33273Y67654
X37485Y67399
X56148Y64581
X43815Y64105
X42799Y61057
X40640Y59279
X49276Y67661
X49276Y65629
X49276Y62835
X49784Y60422
X46609Y60803
X44196Y66645
X46736Y67534
X35179Y64613
X37973Y62581
X34798Y60422
X28829Y54834
X22607Y54564
X35180Y57201
X36240Y53936
X32636Y55063
X41901Y56397
X44794Y53507
X38100Y58898
X28956Y58390
X32131Y61311
X27984Y61977
X27305Y64486
X27459Y67587
X40166Y54068
X24765Y64105
X24241Y61422
X19997Y67634
X13970Y67661
X15939Y60740
X11176Y65502
X11176Y67661
X6731Y67280
X8001Y65248
X8763Y62962
X13589Y63089
X8255Y60549
X7874Y55850
X3556Y59533
X3048Y55088
X6350Y47278
X5699Y52056
X18288Y38959
X13995Y46824
X18749Y46769
X25019Y38070
X31094Y41043
X32258Y33498
X18049Y19755
X22243Y14575
X70483Y10638
X75563Y15210
X16020Y8987
X17274Y16337
X24949Y20391
X8606Y33696
X19274Y32426
X6223Y41865
X8890Y29053
X1070Y9848
X99033Y37921
X90083Y38421
X37796Y36652
X39958Y38648
X41208Y35298
X45958Y35198
X30608Y28698
X27681Y29082
X27508Y25598
X25151Y26742
X29631Y22182
X38940Y17643
X45940Y20643
M30