G04 EAGLE Gerber RS-274X export*
G75*
%MOMM*%
%FSLAX34Y34*%
%LPD*%
%INSolder Mask bottom*%
%IPPOS*%
%AMOC8*
5,1,8,0,0,1.08239X$1,22.5*%
G01*
%ADD10C,0.000000*%
%ADD11C,3.200000*%
%ADD12C,1.425000*%
%ADD13C,3.316000*%
%ADD14C,3.600000*%
%ADD15R,1.500000X1.500000*%
%ADD16P,1.623585X8X202.500000*%
%ADD17P,1.319650X8X292.500000*%
%ADD18R,5.100000X5.100000*%
%ADD19C,5.100000*%
%ADD20R,1.200000X1.200000*%
%ADD21C,1.200000*%
%ADD22R,1.575000X1.575000*%
%ADD23C,1.575000*%
%ADD24C,1.524000*%
%ADD25R,1.100000X1.000000*%
%ADD26R,1.000000X1.100000*%
%ADD27R,1.600000X1.600000*%
%ADD28P,1.731824X8X292.500000*%
%ADD29R,1.050000X1.080000*%
%ADD30R,1.000000X1.400000*%
%ADD31P,1.319650X8X22.500000*%
%ADD32C,1.530000*%
%ADD33C,1.371600*%
%ADD34P,1.623585X8X22.500000*%
%ADD35P,1.731824X8X22.500000*%

G36*
X1001050Y-369D02*
X1001050Y-369D01*
X1001101Y-367D01*
X1001133Y-349D01*
X1001169Y-341D01*
X1001208Y-308D01*
X1001253Y-284D01*
X1001274Y-254D01*
X1001302Y-231D01*
X1001323Y-184D01*
X1001353Y-142D01*
X1001361Y-100D01*
X1001373Y-72D01*
X1001372Y-42D01*
X1001380Y0D01*
X1001380Y159000D01*
X1001369Y159050D01*
X1001367Y159101D01*
X1001349Y159133D01*
X1001341Y159169D01*
X1001308Y159208D01*
X1001284Y159253D01*
X1001254Y159274D01*
X1001231Y159302D01*
X1001184Y159323D01*
X1001142Y159353D01*
X1001100Y159361D01*
X1001072Y159373D01*
X1001042Y159372D01*
X1001000Y159380D01*
X0Y159380D01*
X-50Y159369D01*
X-101Y159367D01*
X-133Y159349D01*
X-169Y159341D01*
X-208Y159308D01*
X-253Y159284D01*
X-274Y159254D01*
X-302Y159231D01*
X-323Y159184D01*
X-353Y159142D01*
X-361Y159100D01*
X-373Y159072D01*
X-372Y159042D01*
X-380Y159000D01*
X-380Y0D01*
X-369Y-50D01*
X-367Y-101D01*
X-349Y-133D01*
X-341Y-169D01*
X-308Y-208D01*
X-284Y-253D01*
X-254Y-274D01*
X-231Y-302D01*
X-184Y-323D01*
X-142Y-353D01*
X-100Y-361D01*
X-72Y-373D01*
X-42Y-372D01*
X0Y-380D01*
X1001000Y-380D01*
X1001050Y-369D01*
G37*
G36*
X1000050Y169631D02*
X1000050Y169631D01*
X1000101Y169633D01*
X1000133Y169651D01*
X1000169Y169659D01*
X1000208Y169692D01*
X1000253Y169716D01*
X1000274Y169746D01*
X1000302Y169769D01*
X1000323Y169816D01*
X1000353Y169858D01*
X1000361Y169900D01*
X1000373Y169928D01*
X1000372Y169958D01*
X1000380Y170000D01*
X1000380Y284000D01*
X1000369Y284050D01*
X1000367Y284101D01*
X1000349Y284133D01*
X1000341Y284169D01*
X1000308Y284208D01*
X1000284Y284253D01*
X1000254Y284274D01*
X1000231Y284302D01*
X1000184Y284323D01*
X1000142Y284353D01*
X1000100Y284361D01*
X1000072Y284373D01*
X1000042Y284372D01*
X1000000Y284380D01*
X199000Y284380D01*
X198950Y284369D01*
X198899Y284367D01*
X198867Y284349D01*
X198831Y284341D01*
X198792Y284308D01*
X198747Y284284D01*
X198726Y284254D01*
X198698Y284231D01*
X198677Y284184D01*
X198647Y284142D01*
X198639Y284100D01*
X198627Y284072D01*
X198628Y284042D01*
X198620Y284000D01*
X198620Y170000D01*
X198631Y169950D01*
X198633Y169899D01*
X198651Y169867D01*
X198659Y169831D01*
X198692Y169792D01*
X198716Y169747D01*
X198746Y169726D01*
X198769Y169698D01*
X198816Y169677D01*
X198858Y169647D01*
X198900Y169639D01*
X198928Y169627D01*
X198958Y169628D01*
X199000Y169620D01*
X1000000Y169620D01*
X1000050Y169631D01*
G37*
G36*
X192050Y169631D02*
X192050Y169631D01*
X192101Y169633D01*
X192133Y169651D01*
X192169Y169659D01*
X192208Y169692D01*
X192253Y169716D01*
X192274Y169746D01*
X192302Y169769D01*
X192323Y169816D01*
X192353Y169858D01*
X192361Y169900D01*
X192373Y169928D01*
X192372Y169958D01*
X192380Y170000D01*
X192380Y230000D01*
X192369Y230050D01*
X192367Y230101D01*
X192349Y230133D01*
X192341Y230169D01*
X192308Y230208D01*
X192284Y230253D01*
X192254Y230274D01*
X192231Y230302D01*
X192184Y230323D01*
X192142Y230353D01*
X192100Y230361D01*
X192072Y230373D01*
X192042Y230372D01*
X192000Y230380D01*
X47000Y230380D01*
X46950Y230369D01*
X46899Y230367D01*
X46867Y230349D01*
X46831Y230341D01*
X46792Y230308D01*
X46747Y230284D01*
X46726Y230254D01*
X46698Y230231D01*
X46677Y230184D01*
X46647Y230142D01*
X46639Y230100D01*
X46627Y230072D01*
X46628Y230042D01*
X46620Y230000D01*
X46620Y170000D01*
X46631Y169950D01*
X46633Y169899D01*
X46651Y169867D01*
X46659Y169831D01*
X46692Y169792D01*
X46716Y169747D01*
X46746Y169726D01*
X46769Y169698D01*
X46816Y169677D01*
X46858Y169647D01*
X46900Y169639D01*
X46928Y169627D01*
X46958Y169628D01*
X47000Y169620D01*
X192000Y169620D01*
X192050Y169631D01*
G37*
D10*
X30000Y0D02*
X970000Y0D01*
X1000000Y30000D02*
X1000000Y970000D01*
X970000Y1000000D02*
X30000Y1000000D01*
X0Y970000D02*
X0Y30000D01*
X9Y29275D01*
X35Y28551D01*
X79Y27827D01*
X140Y27105D01*
X219Y26384D01*
X315Y25665D01*
X428Y24949D01*
X559Y24236D01*
X707Y23526D01*
X872Y22821D01*
X1054Y22119D01*
X1253Y21422D01*
X1468Y20729D01*
X1701Y20043D01*
X1950Y19362D01*
X2215Y18687D01*
X2496Y18019D01*
X2794Y17358D01*
X3107Y16704D01*
X3436Y16058D01*
X3781Y15420D01*
X4141Y14791D01*
X4516Y14171D01*
X4906Y13560D01*
X5310Y12958D01*
X5729Y12366D01*
X6163Y11785D01*
X6610Y11214D01*
X7071Y10655D01*
X7545Y10106D01*
X8032Y9570D01*
X8532Y9045D01*
X9045Y8532D01*
X9570Y8032D01*
X10106Y7545D01*
X10655Y7071D01*
X11214Y6610D01*
X11785Y6163D01*
X12366Y5729D01*
X12958Y5310D01*
X13560Y4906D01*
X14171Y4516D01*
X14791Y4141D01*
X15420Y3781D01*
X16058Y3436D01*
X16704Y3107D01*
X17358Y2794D01*
X18019Y2496D01*
X18687Y2215D01*
X19362Y1950D01*
X20043Y1701D01*
X20729Y1468D01*
X21422Y1253D01*
X22119Y1054D01*
X22821Y872D01*
X23526Y707D01*
X24236Y559D01*
X24949Y428D01*
X25665Y315D01*
X26384Y219D01*
X27105Y140D01*
X27827Y79D01*
X28551Y35D01*
X29275Y9D01*
X30000Y0D01*
X0Y970000D02*
X9Y970725D01*
X35Y971449D01*
X79Y972173D01*
X140Y972895D01*
X219Y973616D01*
X315Y974335D01*
X428Y975051D01*
X559Y975764D01*
X707Y976474D01*
X872Y977179D01*
X1054Y977881D01*
X1253Y978578D01*
X1468Y979271D01*
X1701Y979957D01*
X1950Y980638D01*
X2215Y981313D01*
X2496Y981981D01*
X2794Y982642D01*
X3107Y983296D01*
X3436Y983942D01*
X3781Y984580D01*
X4141Y985209D01*
X4516Y985829D01*
X4906Y986440D01*
X5310Y987042D01*
X5729Y987634D01*
X6163Y988215D01*
X6610Y988786D01*
X7071Y989345D01*
X7545Y989894D01*
X8032Y990430D01*
X8532Y990955D01*
X9045Y991468D01*
X9570Y991968D01*
X10106Y992455D01*
X10655Y992929D01*
X11214Y993390D01*
X11785Y993837D01*
X12366Y994271D01*
X12958Y994690D01*
X13560Y995094D01*
X14171Y995484D01*
X14791Y995859D01*
X15420Y996219D01*
X16058Y996564D01*
X16704Y996893D01*
X17358Y997206D01*
X18019Y997504D01*
X18687Y997785D01*
X19362Y998050D01*
X20043Y998299D01*
X20729Y998532D01*
X21422Y998747D01*
X22119Y998946D01*
X22821Y999128D01*
X23526Y999293D01*
X24236Y999441D01*
X24949Y999572D01*
X25665Y999685D01*
X26384Y999781D01*
X27105Y999860D01*
X27827Y999921D01*
X28551Y999965D01*
X29275Y999991D01*
X30000Y1000000D01*
X970000Y1000000D02*
X970725Y999991D01*
X971449Y999965D01*
X972173Y999921D01*
X972895Y999860D01*
X973616Y999781D01*
X974335Y999685D01*
X975051Y999572D01*
X975764Y999441D01*
X976474Y999293D01*
X977179Y999128D01*
X977881Y998946D01*
X978578Y998747D01*
X979271Y998532D01*
X979957Y998299D01*
X980638Y998050D01*
X981313Y997785D01*
X981981Y997504D01*
X982642Y997206D01*
X983296Y996893D01*
X983942Y996564D01*
X984580Y996219D01*
X985209Y995859D01*
X985829Y995484D01*
X986440Y995094D01*
X987042Y994690D01*
X987634Y994271D01*
X988215Y993837D01*
X988786Y993390D01*
X989345Y992929D01*
X989894Y992455D01*
X990430Y991968D01*
X990955Y991468D01*
X991468Y990955D01*
X991968Y990430D01*
X992455Y989894D01*
X992929Y989345D01*
X993390Y988786D01*
X993837Y988215D01*
X994271Y987634D01*
X994690Y987042D01*
X995094Y986440D01*
X995484Y985829D01*
X995859Y985209D01*
X996219Y984580D01*
X996564Y983942D01*
X996893Y983296D01*
X997206Y982642D01*
X997504Y981981D01*
X997785Y981313D01*
X998050Y980638D01*
X998299Y979957D01*
X998532Y979271D01*
X998747Y978578D01*
X998946Y977881D01*
X999128Y977179D01*
X999293Y976474D01*
X999441Y975764D01*
X999572Y975051D01*
X999685Y974335D01*
X999781Y973616D01*
X999860Y972895D01*
X999921Y972173D01*
X999965Y971449D01*
X999991Y970725D01*
X1000000Y970000D01*
X1000000Y30000D02*
X999991Y29275D01*
X999965Y28551D01*
X999921Y27827D01*
X999860Y27105D01*
X999781Y26384D01*
X999685Y25665D01*
X999572Y24949D01*
X999441Y24236D01*
X999293Y23526D01*
X999128Y22821D01*
X998946Y22119D01*
X998747Y21422D01*
X998532Y20729D01*
X998299Y20043D01*
X998050Y19362D01*
X997785Y18687D01*
X997504Y18019D01*
X997206Y17358D01*
X996893Y16704D01*
X996564Y16058D01*
X996219Y15420D01*
X995859Y14791D01*
X995484Y14171D01*
X995094Y13560D01*
X994690Y12958D01*
X994271Y12366D01*
X993837Y11785D01*
X993390Y11214D01*
X992929Y10655D01*
X992455Y10106D01*
X991968Y9570D01*
X991468Y9045D01*
X990955Y8532D01*
X990430Y8032D01*
X989894Y7545D01*
X989345Y7071D01*
X988786Y6610D01*
X988215Y6163D01*
X987634Y5729D01*
X987042Y5310D01*
X986440Y4906D01*
X985829Y4516D01*
X985209Y4141D01*
X984580Y3781D01*
X983942Y3436D01*
X983296Y3107D01*
X982642Y2794D01*
X981981Y2496D01*
X981313Y2215D01*
X980638Y1950D01*
X979957Y1701D01*
X979271Y1468D01*
X978578Y1253D01*
X977881Y1054D01*
X977179Y872D01*
X976474Y707D01*
X975764Y559D01*
X975051Y428D01*
X974335Y315D01*
X973616Y219D01*
X972895Y140D01*
X972173Y79D01*
X971449Y35D01*
X970725Y9D01*
X970000Y0D01*
D11*
X30000Y30000D03*
X30000Y970000D03*
X970000Y30000D03*
X970000Y970000D03*
D12*
X877525Y530000D02*
X863275Y530000D01*
X863275Y550000D02*
X877525Y550000D01*
X877525Y505000D02*
X863275Y505000D01*
X863275Y575000D02*
X877525Y575000D01*
D13*
X897500Y474300D03*
X897500Y605700D03*
D12*
X136725Y550000D02*
X122475Y550000D01*
X122475Y530000D02*
X136725Y530000D01*
X136725Y575000D02*
X122475Y575000D01*
X122475Y505000D02*
X136725Y505000D01*
D13*
X102500Y605700D03*
X102500Y474300D03*
D14*
X210000Y587000D03*
X210000Y540000D03*
X210000Y493000D03*
D15*
X295000Y470000D03*
D16*
X320000Y470000D03*
X345000Y470000D03*
D17*
X180000Y372700D03*
X180000Y347300D03*
X390000Y372700D03*
X390000Y347300D03*
X250000Y372700D03*
X250000Y347300D03*
X320000Y372700D03*
X320000Y347300D03*
D18*
X930000Y200000D03*
D19*
X930000Y128370D03*
D18*
X840000Y200000D03*
D19*
X840000Y128370D03*
D18*
X750000Y200000D03*
D19*
X750000Y128370D03*
D18*
X660000Y200000D03*
D19*
X660000Y128370D03*
D20*
X568100Y508100D03*
D21*
X542700Y508100D03*
X517300Y508100D03*
X491900Y508100D03*
X491900Y431900D03*
X517300Y431900D03*
X542700Y431900D03*
X568100Y431900D03*
D18*
X90000Y200000D03*
D19*
X90000Y128370D03*
D22*
X530000Y125000D03*
D23*
X530000Y200000D03*
D22*
X350000Y125000D03*
D23*
X350000Y200000D03*
D24*
X184120Y255400D02*
X168880Y255400D01*
X206980Y230000D02*
X222220Y230000D01*
X184120Y204600D02*
X168880Y204600D01*
D25*
X893300Y810200D03*
X893300Y793200D03*
D26*
X540800Y475400D03*
X557800Y475400D03*
D27*
X25000Y337500D03*
D28*
X25000Y362500D03*
D29*
X748750Y610000D03*
X731250Y610000D03*
D30*
X740000Y559000D03*
X749500Y581000D03*
X730500Y581000D03*
D29*
X817450Y606200D03*
X799950Y606200D03*
D30*
X809300Y556700D03*
X818800Y578700D03*
X799800Y578700D03*
D31*
X677300Y540000D03*
X702700Y540000D03*
X767300Y540000D03*
X792700Y540000D03*
X677300Y480000D03*
X702700Y480000D03*
X767300Y480000D03*
X792700Y480000D03*
D32*
X136550Y750650D02*
X121250Y750650D01*
X121250Y725250D02*
X136550Y725250D01*
X136550Y699850D02*
X121250Y699850D01*
X121250Y674450D02*
X136550Y674450D01*
X136550Y649050D02*
X121250Y649050D01*
X121250Y776050D02*
X136550Y776050D01*
X136550Y801450D02*
X121250Y801450D01*
X121250Y826850D02*
X136550Y826850D01*
X136550Y852250D02*
X121250Y852250D01*
X121250Y877650D02*
X136550Y877650D01*
X578450Y750650D02*
X593750Y750650D01*
X593750Y725250D02*
X578450Y725250D01*
X578450Y699850D02*
X593750Y699850D01*
X593750Y674450D02*
X578450Y674450D01*
X578450Y649050D02*
X593750Y649050D01*
X593750Y776050D02*
X578450Y776050D01*
X578450Y801450D02*
X593750Y801450D01*
X593750Y826850D02*
X578450Y826850D01*
X578450Y852250D02*
X593750Y852250D01*
X593750Y877650D02*
X578450Y877650D01*
D33*
X796500Y963142D02*
X796500Y976858D01*
X821900Y976858D02*
X821900Y963142D01*
X847300Y963142D02*
X847300Y976858D01*
X872700Y976858D02*
X872700Y963142D01*
X898100Y963142D02*
X898100Y976858D01*
X923500Y976858D02*
X923500Y963142D01*
D15*
X377500Y907500D03*
D34*
X352500Y907500D03*
X327500Y907500D03*
X302500Y907500D03*
D25*
X790500Y872050D03*
X790500Y889050D03*
D27*
X742500Y965000D03*
D35*
X717500Y965000D03*
D24*
X768380Y743800D02*
X783620Y743800D01*
X783620Y718400D02*
X768380Y718400D01*
X768380Y693000D02*
X783620Y693000D01*
X783620Y667600D02*
X768380Y667600D01*
X768380Y642200D02*
X783620Y642200D01*
D26*
X807300Y400000D03*
X790300Y400000D03*
D29*
X843150Y445600D03*
X825650Y445600D03*
D30*
X835100Y400000D03*
X844600Y422000D03*
X825600Y422000D03*
D31*
X737300Y400000D03*
X762700Y400000D03*
M02*
