G04 EAGLE Gerber RS-274X export*
G75*
%MOMM*%
%FSLAX34Y34*%
%LPD*%
%INSolder paste top*%
%IPPOS*%
%AMOC8*
5,1,8,0,0,1.08239X$1,22.5*%
G01*
%ADD10C,0.000000*%
%ADD11C,3.200000*%
%ADD12R,1.100000X1.000000*%
%ADD13R,1.000000X1.100000*%
%ADD14R,1.080000X1.050000*%
%ADD15R,1.400000X2.050000*%
%ADD16R,0.810000X1.040000*%
%ADD17R,1.219200X2.235200*%
%ADD18R,3.600000X2.200000*%
%ADD19R,0.750000X0.940000*%
%ADD20R,1.040000X0.810000*%
%ADD21R,1.475000X0.450000*%


D10*
X30000Y0D02*
X970000Y0D01*
X1000000Y30000D02*
X1000000Y970000D01*
X970000Y1000000D02*
X30000Y1000000D01*
X0Y970000D02*
X0Y30000D01*
X9Y29275D01*
X35Y28551D01*
X79Y27827D01*
X140Y27105D01*
X219Y26384D01*
X315Y25665D01*
X428Y24949D01*
X559Y24236D01*
X707Y23526D01*
X872Y22821D01*
X1054Y22119D01*
X1253Y21422D01*
X1468Y20729D01*
X1701Y20043D01*
X1950Y19362D01*
X2215Y18687D01*
X2496Y18019D01*
X2794Y17358D01*
X3107Y16704D01*
X3436Y16058D01*
X3781Y15420D01*
X4141Y14791D01*
X4516Y14171D01*
X4906Y13560D01*
X5310Y12958D01*
X5729Y12366D01*
X6163Y11785D01*
X6610Y11214D01*
X7071Y10655D01*
X7545Y10106D01*
X8032Y9570D01*
X8532Y9045D01*
X9045Y8532D01*
X9570Y8032D01*
X10106Y7545D01*
X10655Y7071D01*
X11214Y6610D01*
X11785Y6163D01*
X12366Y5729D01*
X12958Y5310D01*
X13560Y4906D01*
X14171Y4516D01*
X14791Y4141D01*
X15420Y3781D01*
X16058Y3436D01*
X16704Y3107D01*
X17358Y2794D01*
X18019Y2496D01*
X18687Y2215D01*
X19362Y1950D01*
X20043Y1701D01*
X20729Y1468D01*
X21422Y1253D01*
X22119Y1054D01*
X22821Y872D01*
X23526Y707D01*
X24236Y559D01*
X24949Y428D01*
X25665Y315D01*
X26384Y219D01*
X27105Y140D01*
X27827Y79D01*
X28551Y35D01*
X29275Y9D01*
X30000Y0D01*
X0Y970000D02*
X9Y970725D01*
X35Y971449D01*
X79Y972173D01*
X140Y972895D01*
X219Y973616D01*
X315Y974335D01*
X428Y975051D01*
X559Y975764D01*
X707Y976474D01*
X872Y977179D01*
X1054Y977881D01*
X1253Y978578D01*
X1468Y979271D01*
X1701Y979957D01*
X1950Y980638D01*
X2215Y981313D01*
X2496Y981981D01*
X2794Y982642D01*
X3107Y983296D01*
X3436Y983942D01*
X3781Y984580D01*
X4141Y985209D01*
X4516Y985829D01*
X4906Y986440D01*
X5310Y987042D01*
X5729Y987634D01*
X6163Y988215D01*
X6610Y988786D01*
X7071Y989345D01*
X7545Y989894D01*
X8032Y990430D01*
X8532Y990955D01*
X9045Y991468D01*
X9570Y991968D01*
X10106Y992455D01*
X10655Y992929D01*
X11214Y993390D01*
X11785Y993837D01*
X12366Y994271D01*
X12958Y994690D01*
X13560Y995094D01*
X14171Y995484D01*
X14791Y995859D01*
X15420Y996219D01*
X16058Y996564D01*
X16704Y996893D01*
X17358Y997206D01*
X18019Y997504D01*
X18687Y997785D01*
X19362Y998050D01*
X20043Y998299D01*
X20729Y998532D01*
X21422Y998747D01*
X22119Y998946D01*
X22821Y999128D01*
X23526Y999293D01*
X24236Y999441D01*
X24949Y999572D01*
X25665Y999685D01*
X26384Y999781D01*
X27105Y999860D01*
X27827Y999921D01*
X28551Y999965D01*
X29275Y999991D01*
X30000Y1000000D01*
X970000Y1000000D02*
X970725Y999991D01*
X971449Y999965D01*
X972173Y999921D01*
X972895Y999860D01*
X973616Y999781D01*
X974335Y999685D01*
X975051Y999572D01*
X975764Y999441D01*
X976474Y999293D01*
X977179Y999128D01*
X977881Y998946D01*
X978578Y998747D01*
X979271Y998532D01*
X979957Y998299D01*
X980638Y998050D01*
X981313Y997785D01*
X981981Y997504D01*
X982642Y997206D01*
X983296Y996893D01*
X983942Y996564D01*
X984580Y996219D01*
X985209Y995859D01*
X985829Y995484D01*
X986440Y995094D01*
X987042Y994690D01*
X987634Y994271D01*
X988215Y993837D01*
X988786Y993390D01*
X989345Y992929D01*
X989894Y992455D01*
X990430Y991968D01*
X990955Y991468D01*
X991468Y990955D01*
X991968Y990430D01*
X992455Y989894D01*
X992929Y989345D01*
X993390Y988786D01*
X993837Y988215D01*
X994271Y987634D01*
X994690Y987042D01*
X995094Y986440D01*
X995484Y985829D01*
X995859Y985209D01*
X996219Y984580D01*
X996564Y983942D01*
X996893Y983296D01*
X997206Y982642D01*
X997504Y981981D01*
X997785Y981313D01*
X998050Y980638D01*
X998299Y979957D01*
X998532Y979271D01*
X998747Y978578D01*
X998946Y977881D01*
X999128Y977179D01*
X999293Y976474D01*
X999441Y975764D01*
X999572Y975051D01*
X999685Y974335D01*
X999781Y973616D01*
X999860Y972895D01*
X999921Y972173D01*
X999965Y971449D01*
X999991Y970725D01*
X1000000Y970000D01*
X1000000Y30000D02*
X999991Y29275D01*
X999965Y28551D01*
X999921Y27827D01*
X999860Y27105D01*
X999781Y26384D01*
X999685Y25665D01*
X999572Y24949D01*
X999441Y24236D01*
X999293Y23526D01*
X999128Y22821D01*
X998946Y22119D01*
X998747Y21422D01*
X998532Y20729D01*
X998299Y20043D01*
X998050Y19362D01*
X997785Y18687D01*
X997504Y18019D01*
X997206Y17358D01*
X996893Y16704D01*
X996564Y16058D01*
X996219Y15420D01*
X995859Y14791D01*
X995484Y14171D01*
X995094Y13560D01*
X994690Y12958D01*
X994271Y12366D01*
X993837Y11785D01*
X993390Y11214D01*
X992929Y10655D01*
X992455Y10106D01*
X991968Y9570D01*
X991468Y9045D01*
X990955Y8532D01*
X990430Y8032D01*
X989894Y7545D01*
X989345Y7071D01*
X988786Y6610D01*
X988215Y6163D01*
X987634Y5729D01*
X987042Y5310D01*
X986440Y4906D01*
X985829Y4516D01*
X985209Y4141D01*
X984580Y3781D01*
X983942Y3436D01*
X983296Y3107D01*
X982642Y2794D01*
X981981Y2496D01*
X981313Y2215D01*
X980638Y1950D01*
X979957Y1701D01*
X979271Y1468D01*
X978578Y1253D01*
X977881Y1054D01*
X977179Y872D01*
X976474Y707D01*
X975764Y559D01*
X975051Y428D01*
X974335Y315D01*
X973616Y219D01*
X972895Y140D01*
X972173Y79D01*
X971449Y35D01*
X970725Y9D01*
X970000Y0D01*
D11*
X30000Y30000D03*
X30000Y970000D03*
X970000Y30000D03*
X970000Y970000D03*
D12*
X390000Y311500D03*
X390000Y328500D03*
X180000Y311500D03*
X180000Y328500D03*
X250000Y311500D03*
X250000Y328500D03*
X320000Y311500D03*
X320000Y328500D03*
X130000Y298500D03*
X130000Y281500D03*
D13*
X161500Y281500D03*
X178500Y281500D03*
D12*
X730000Y557000D03*
X730000Y540000D03*
X820000Y557000D03*
X820000Y540000D03*
D14*
X730000Y462250D03*
X730000Y479750D03*
X820000Y462250D03*
X820000Y479750D03*
D15*
X900000Y677750D03*
X900000Y757250D03*
X945000Y677750D03*
X945000Y757250D03*
D16*
X914400Y641700D03*
X900000Y641700D03*
D17*
X366886Y539012D03*
X390000Y539012D03*
X413114Y539012D03*
D18*
X390000Y600990D03*
D13*
X462050Y539850D03*
X462050Y522850D03*
D19*
X384000Y500150D03*
X370000Y500150D03*
D20*
X805000Y897200D03*
X805000Y882800D03*
D16*
X908600Y823300D03*
X894200Y823300D03*
D20*
X834500Y897400D03*
X834500Y883000D03*
X864500Y897400D03*
X864500Y883000D03*
D16*
X908500Y883100D03*
X894100Y883100D03*
X908500Y853100D03*
X894100Y853100D03*
X735600Y823300D03*
X750000Y823300D03*
X735600Y846400D03*
X750000Y846400D03*
D21*
X790620Y849250D03*
X790620Y842750D03*
X790620Y836250D03*
X790620Y829750D03*
X790620Y823250D03*
X790620Y816750D03*
X790620Y810250D03*
X790620Y803750D03*
X790620Y797250D03*
X790620Y790750D03*
X849380Y790750D03*
X849380Y797250D03*
X849380Y803750D03*
X849380Y810250D03*
X849380Y816750D03*
X849380Y823250D03*
X849380Y829750D03*
X849380Y836250D03*
X849380Y842750D03*
X849380Y849250D03*
M02*
