M48
;GenerationSoftware,Autodesk,EAGLE,9.6.2*%
;CreationDate,2023-12-29T08:20:26Z*%
FMAT,2
ICI,OFF
METRIC,TZ,000.000
T13C0.350
T12C0.800
T11C0.813
T10C0.900
T9C0.914
T8C0.950
T7C1.000
T6C1.016
T5C1.020
T4C1.050
T3C2.300
T2C2.370
T1C3.400
%
G90
M71
T1
X93000Y20000
X93000Y12837
X84000Y20000
X84000Y12837
X75000Y20000
X66000Y20000
X9000Y12837
X9000Y20000
X66000Y12837
X75000Y12837
T2
X21000Y49300
X21000Y58700
X21000Y54000
T3
X89750Y47430
X89750Y60570
X10250Y60570
X10250Y47430
T4
X53000Y12500
X53000Y20000
X35000Y12500
X35000Y20000
T5
X58610Y64905
X58610Y77605
X58610Y80145
X58610Y82685
X58610Y85225
X58610Y87765
X58610Y72525
X58610Y75065
X12890Y87765
X12890Y85225
X12890Y82685
X12890Y80145
X12890Y64905
X12890Y77605
X12890Y67445
X12890Y69985
X12890Y75065
X12890Y72525
X58610Y69985
X58610Y67445
T6
X17650Y20460
X21460Y23000
X17650Y25540
X77600Y64220
X77600Y74380
X77600Y71840
X77600Y69300
X77600Y66760
T7
X37000Y35000
X2500Y36250
X2500Y33750
X74250Y96500
X71750Y96500
T8
X87040Y53000
X87040Y55000
X87040Y50500
X87040Y57500
X12960Y53000
X12960Y55000
X12960Y50500
X12960Y57500
T9
X79650Y97000
X82190Y97000
X84730Y97000
X87270Y97000
X92350Y97000
X89810Y97000
T10
X34500Y47000
X37750Y90750
X29500Y47000
X32000Y47000
X35250Y90750
X32750Y90750
X30250Y90750
T11
X67730Y54000
X76730Y54000
X79270Y54000
X67730Y48000
X70270Y48000
X76730Y48000
X79270Y48000
X70270Y54000
X32000Y34730
X32000Y37270
X25000Y34730
X25000Y37270
X39000Y34730
X39000Y37270
X18000Y34730
X18000Y37270
X73730Y40000
X76270Y40000
T12
X54270Y43190
X51730Y43190
X49190Y43190
X51730Y50810
X49190Y50810
X54270Y50810
X56810Y50810
X56810Y43190
T13
X48153Y98155
X55153Y98155
X63153Y98155
X47993Y42025
X51993Y42025
X55993Y42025
X60993Y42025
X65993Y42025
X98683Y45325
X98683Y77325
X98683Y82325
X98683Y87325
X98683Y92325
X88083Y98815
X83083Y98815
X78083Y98815
X77993Y91025
X76873Y84275
X72553Y89805
X85553Y86805
X86073Y91245
X83413Y91255
X88343Y85935
X83343Y80985
X89343Y72985
X92343Y72985
X92343Y76985
X91343Y79985
X87963Y80065
X88073Y76635
X89903Y69895
X83903Y71895
X87903Y67895
X88653Y65025
X92653Y68025
X89653Y63025
X84653Y61025
X86653Y60025
X84933Y56225
X82933Y52225
X84933Y52225
X83933Y48225
X81933Y49225
X78933Y46225
X31933Y92225
X74933Y46225
X70933Y46225
X78933Y43225
X64933Y44225
X59933Y44225
X64933Y49225
X61933Y52225
X65933Y52225
X67873Y49775
X69873Y49775
X71873Y52775
X72873Y50775
X75873Y49775
X78093Y49245
X70093Y56245
X67623Y58635
X78093Y60245
X82093Y63245
X84093Y67245
X83973Y76335
X72973Y63335
X74973Y65335
X73973Y69335
X71973Y73335
X73973Y76335
X70973Y82335
X68973Y77335
X60973Y76335
X61973Y79335
X64973Y76335
X60973Y72335
X60973Y69335
X60973Y65335
X54973Y69335
X50973Y71335
X54973Y73335
X51973Y76335
X40993Y47025
X41973Y85335
X38973Y88335
X39973Y90335
X41973Y62335
X44973Y61335
X47873Y58965
X49973Y61335
X52843Y58975
X55043Y61375
X58043Y55375
X50043Y55375
X43043Y55375
X40043Y50375
X37043Y47375
X41993Y44025
X54993Y49025
X54223Y45475
X20223Y56475
X56223Y81475
X76903Y81315
X88503Y83165
X72193Y85155
X77493Y77725
X36533Y92275
X40093Y63005
X48993Y87025
X46993Y90025
X51993Y91025
X56993Y91025
X62993Y91025
X68993Y91025
X62993Y48025
X83553Y84805
X10153Y66155
X10153Y71155
X10153Y76155
X10153Y81155
X10153Y86155
X15153Y86155
X15153Y81155
X15153Y76155
X15153Y71155
X15153Y66155
X56153Y86155
X61153Y86155
X89153Y56155
X89153Y51155
X10153Y56155
X10153Y51155
X15153Y51155
X13153Y46155
X24153Y52155
X24153Y57155
X23153Y62155
X71313Y76475
X67583Y72725
X74353Y79455
X28993Y49025
X34993Y55025
X86993Y46025
X92893Y53915
X92893Y49915
X92893Y58915
X92893Y63915
X39000Y60099
X60993Y57025
X35000Y30000
X89330Y81020
X71620Y58000
X69000Y45000
X74875Y61000
X81745Y60620
X73000Y55700
X82000Y55700
X80640Y82600
X90000Y67775
X65385Y71645
X84000Y86000
X87000Y85000
X80000Y86000
X83000Y83000
X79050Y87205
X50993Y67025
X33193Y43985
X64993Y68025
X51993Y53025
X49993Y48025
X58993Y51025
X47993Y74025
X44993Y77025
X41993Y80025
X39993Y83025
X35993Y86025
X43993Y87025
X50993Y94025
X57993Y94025
X62993Y94025
X69963Y93845
X73993Y95025
X72993Y99025
X93623Y89145
X93623Y94145
X88623Y90145
X88623Y94145
X98623Y73145
X98623Y69145
X75623Y56145
X31993Y88025
X33993Y84025
X36993Y81025
X40993Y77025
X43993Y74025
X46993Y71025
X54993Y66025
X41993Y59025
X58993Y59025
X37993Y63025
X37993Y68025
X39993Y68025
X39993Y73025
X37993Y73025
X39993Y77025
X37993Y77025
X37993Y57025
X39993Y57025
X33443Y51050
X43993Y50025
X43993Y53025
X37993Y44025
X33993Y42025
X29993Y43025
X25993Y44025
X25993Y46025
X23993Y48025
X21993Y47025
X17993Y55025
X45973Y81335
X17993Y59025
X14993Y56025
X14993Y59025
X63993Y55025
X55993Y79025
X50993Y81025
X47993Y83025
X68993Y67025
X67583Y94215
X68733Y98365
X80933Y94695
X83423Y94685
X86063Y94595
X91083Y98815
X98683Y65315
X98683Y61465
X98683Y57325
X98683Y51325
X98683Y42325
X98683Y48325
X98683Y54325
X92993Y42025
X86993Y42025
X74993Y43025
X70993Y43025
X42993Y42025
X38993Y42025
X22153Y42155
X16153Y42155
X9153Y42155
X2153Y42155
X2153Y48155
X2153Y54155
X2153Y60155
X2153Y67155
X2153Y73155
X2153Y80155
X2153Y87155
X2153Y92155
X8153Y98155
X14153Y98155
X21153Y98155
X28153Y98155
X34153Y98155
X41153Y98155
M30